<svg xmlns="http://www.w3.org/2000/svg" viewBox="0 0 340 227.71"><defs><style>.cls-1{fill:#efeeed;}.cls-2{fill:#1d1f21;}</style></defs><g id="Layer_2" data-name="Layer 2"><g id="Logo"><path class="cls-1" d="M293.65,90.13c-2.76-2-5.42-4-7.9-5.89A15.39,15.39,0,0,0,294,82.35,43.93,43.93,0,0,0,272.68,0c-19.79,0-35.89,12.87-41.79,32.31-4.59-1.78-10.58-2.63-18.24-1.14-10.42,2-18.48,9.26-22.84,19.9l0,0c-7.12-2.56-13.75-.83-19.11,2a15.16,15.16,0,0,0-21.54,13.75v9.07c-.7-.34-1.42-.66-2.18-.94h0c-6.34-2.27-12.29-1.14-17.3,1.16A15.15,15.15,0,0,0,106.3,88.89v9.34c-4.8-2.35-11.39-3.73-20.21-2A28.8,28.8,0,0,0,74.87,101V66.33a15.16,15.16,0,0,0-30.32,0v74.36L30.31,148V89.22A15.16,15.16,0,1,0,0,89.22V209.41a15.16,15.16,0,1,0,30.31,0V182.12l14.24-7.33v11.76a15.16,15.16,0,0,0,30.32,0V170.41A25,25,0,0,0,80.18,173a29.69,29.69,0,0,0,10,1.77,28.88,28.88,0,0,0,17.39-5.94,36,36,0,0,0,8.62-9.33,15,15,0,0,0,5.25,1,15.17,15.17,0,0,0,15.15-15.16V143a15.15,15.15,0,0,0,24.5-4.86,15.14,15.14,0,0,0,18.33-14.82V121a15.15,15.15,0,0,0,25.73-10.85v-2.78c.53.23,1,.47,1.58.67a29.82,29.82,0,0,0,10,1.76,28.94,28.94,0,0,0,17.39-5.94A37.39,37.39,0,0,0,245.7,89.06,156.75,156.75,0,0,0,263,105.13c4,3.3,8.38,6.5,12.61,9.61,17.43,12.81,33.89,24.91,33.89,45.65A36.8,36.8,0,1,1,250,131.45a15.27,15.27,0,0,0-18.89-24A67.33,67.33,0,1,0,340,160.39C340,124.19,314.3,105.31,293.65,90.13ZM271.61,72c-6.66-6.55-8.44-10.24-10.4-14.32a20.51,20.51,0,0,1-2-12.05c1-9,6.45-15.13,13.5-15.13a13.41,13.41,0,0,1,6.49,25.15A15.29,15.29,0,0,0,271.61,72Z"/><path class="cls-2" d="M59.71,63.09a3.23,3.23,0,0,0-3.23,3.24V148L18.39,167.57V89.22a3.24,3.24,0,1,0-6.47,0V209.41a3.24,3.24,0,0,0,6.47,0V174.85l38.09-19.61v31.31a3.23,3.23,0,1,0,6.46,0V66.33A3.23,3.23,0,0,0,59.71,63.09Z"/><path class="cls-2" d="M107.34,134.63a3.24,3.24,0,0,0-3.06,3.41c.27,4.77-2.61,12.28-7.71,16.1a10.4,10.4,0,0,1-10.23,1.57c-5.33-1.88-9-12.26-8.19-23.14.29-3.83,2-16.46,11.43-18.29,4.68-.91,8.15-.37,10.3,1.58,2.45,2.23,3,6,3,8.09l-18.56,9.66a3.23,3.23,0,0,0,3,5.74l20.26-10.54a3.24,3.24,0,0,0,1.73-2.53c0-.39.94-9.69-5-15.17-3.74-3.43-9.1-4.51-15.92-3.18-9.43,1.82-15.65,10.85-16.65,24.16-.91,12.25,3.08,26.39,12.47,29.72a18,18,0,0,0,6,1.08,16.87,16.87,0,0,0,10.24-3.57c7.17-5.36,10.66-15.15,10.3-21.64A3.23,3.23,0,0,0,107.34,134.63Z"/><path class="cls-2" d="M142.91,86.19c-4.89-1.75-10.8.94-18.22,8.25V88.89a3.24,3.24,0,1,0-6.47,0v56.45a3.24,3.24,0,1,0,6.47,0V103.88c10.9-12.52,15.27-11.87,16-11.6,2.11.75,3.18,5.45,3.23,8.34v31.57a3.24,3.24,0,1,0,6.47,0V100.57C150.4,99.37,150,88.76,142.91,86.19Z"/><path class="cls-2" d="M185.74,62.27c-4.9-1.77-10.79.93-18.22,8.25V66.84a3.24,3.24,0,0,0-6.47,0v56.52a3.24,3.24,0,0,0,6.47,0V80c10.92-12.55,15.26-11.88,16-11.6,2.11.75,3.17,5.45,3.23,8.33v33.42a3.24,3.24,0,1,0,6.47,0V76.64C193.23,75.44,192.86,64.83,185.74,62.27Z"/><path class="cls-2" d="M237.3,72.63a3.24,3.24,0,0,0-6.46.36c.26,4.77-2.61,12.28-7.72,16.1a10.39,10.39,0,0,1-10.23,1.57c-5.33-1.89-9-12.27-8.18-23.15.29-3.82,2-16.45,11.42-18.28,4.69-.91,8.16-.38,10.31,1.58,2.45,2.23,2.95,5.95,3,8.09l-18.56,9.66a3.24,3.24,0,0,0,3,5.74l20.26-10.54a3.22,3.22,0,0,0,1.72-2.53c0-.4.94-9.69-5-15.17-3.74-3.43-9.11-4.51-15.92-3.18-9.43,1.81-15.65,10.85-16.65,24.15-.92,12.25,3.07,26.4,12.47,29.73a18,18,0,0,0,6,1.08A16.92,16.92,0,0,0,227,94.27C234.17,88.91,237.66,79.12,237.3,72.63Z"/><path class="cls-2" d="M272.68,215.79a55.41,55.41,0,0,1-34.24-99,3.34,3.34,0,0,1,4.13,5.25,48.72,48.72,0,1,0,78.83,38.31c0-26.78-20.59-41.91-38.76-55.27-4.29-3.15-8.35-6.13-12.08-9.2-16.33-13.43-21.43-20.42-26.11-30.16a39,39,0,0,1-3.76-22.21c2.12-18.62,15.27-31.63,32-31.63a32,32,0,0,1,15.52,60A3.34,3.34,0,0,1,285,66.09,25.33,25.33,0,0,0,272.68,18.6c-13.21,0-23.63,10.57-25.35,25.71a32.51,32.51,0,0,0,3.13,18.56c3.79,7.88,7.54,14.07,24.34,27.89,3.59,3,7.58,5.89,11.79,9C306,114,328.08,130.23,328.08,160.39A55.46,55.46,0,0,1,272.68,215.79Z"/></g></g></svg>